<?xml version="1.0" encoding="UTF-8"?>
<svg version="1.1" xmlns="http://www.w3.org/2000/svg" width="1200" height="1200">
<path d="M0 0 C1.12921875 -0.04930664 1.12921875 -0.04930664 2.28125 -0.09960938 C15.82618049 -0.22335874 29.10006403 7.6380897 41.125 13.25 C42.74844383 14.00273262 44.37206386 14.75508532 45.99584961 15.50708008 C50.1519821 17.43423216 54.3041323 19.36980255 58.45501709 21.30822754 C60.78625008 22.39608531 63.11870539 23.48127 65.45166016 24.56542969 C90.37428885 36.1515736 115.09783832 48.10883322 139.33544922 61.08007812 C142.21110306 62.61715132 145.09209717 64.14401541 147.97265625 65.671875 C159.92838331 72.03751605 171.73767925 78.5955507 183.40600586 85.47436523 C189.09776471 88.82863066 194.8237419 92.08965329 200.625 95.25 C241.48029087 117.64736995 280.65011106 143.86404779 318.875 170.4375 C319.64666504 170.97342773 320.41833008 171.50935547 321.21337891 172.06152344 C332.50709035 179.91314991 343.75451036 187.82759672 354.85009766 195.95751953 C356.15868101 196.91394975 357.47064163 197.86578383 358.78662109 198.81201172 C371.72550894 208.12453744 380.89006094 218.20108991 383.85546875 234.3125 C385.4764168 244.66714162 386.32797431 255.13253759 387.3125 265.5625 C387.42171783 266.71065186 387.53093567 267.85880371 387.64346313 269.04174805 C388.76802678 280.90432903 389.8539992 292.76989353 390.796875 304.6484375 C390.85651428 305.39453278 390.91615356 306.14062805 390.9776001 306.90933228 C394.12647771 347.72629322 395.21147491 388.48731397 395.13574219 429.41821289 C395.12435505 435.62684604 395.13113395 441.83530752 395.14261913 448.04393482 C395.19050394 478.56069937 394.64514976 508.96980225 392.875 539.4375 C392.83506172 540.13072483 392.79512344 540.82394966 392.75397491 541.5381813 C392.27304008 549.82380821 391.70043324 558.10010861 391.0625 566.375 C390.97984894 567.47034058 390.89719788 568.56568115 390.81204224 569.69421387 C389.55829574 586.21726053 388.05832691 602.70928266 386.3125 619.1875 C386.1626918 620.63635086 386.1626918 620.63635086 386.00985718 622.11447144 C384.01531644 641.1991462 380.7012299 656.92766456 365.19042969 669.83984375 C361.24052642 672.96253107 357.17419208 675.92024553 353.08251953 678.85351562 C350.84665878 680.45783597 348.62345692 682.0784621 346.40234375 683.703125 C316.0391432 705.8352009 284.76896264 727.21887616 252.66357422 746.73632812 C249.60025502 748.60510839 246.55145406 750.49624042 243.50390625 752.390625 C221.61865785 765.97468383 199.35402102 778.86454827 176.875 791.4375 C175.78654785 792.04819336 174.6980957 792.65888672 173.57666016 793.28808594 C155.00306286 803.69395109 136.21424137 813.62404858 117.22369385 823.24688721 C114.76463177 824.49344847 112.30685639 825.74252432 109.84912109 826.99169922 C86.76831955 838.71141855 63.55565873 849.98160294 39.875 860.4375 C38.71242676 860.95473633 37.54985352 861.47197266 36.35205078 862.00488281 C33.15442173 863.42697532 29.95343798 864.84104807 26.75 866.25 C25.83774658 866.65307373 24.92549316 867.05614746 23.9855957 867.47143555 C15.9505892 870.96281434 8.95566455 872.7990622 0.1875 872.8125 C-0.63427734 872.83699219 -1.45605469 872.86148438 -2.30273438 872.88671875 C-15.94632944 872.95012818 -28.53036875 865.77742693 -40.6875 860.25 C-41.56214905 859.8542276 -42.4367981 859.4584552 -43.33795166 859.0506897 C-60.62550318 851.22398435 -77.72818519 843.04934004 -94.73077393 834.62353516 C-97.27779981 833.36180709 -99.82610766 832.10269195 -102.37451172 830.84375 C-140.71410574 811.88981581 -140.71410574 811.88981581 -158.38769531 801.96435547 C-161.55717202 800.19643651 -164.74251603 798.45836773 -167.9296875 796.72265625 C-183.56986637 788.19127904 -198.9620721 779.31753642 -214.24267578 770.15771484 C-217.42215351 768.26015428 -220.61831747 766.39330752 -223.82006836 764.53369141 C-234.42477455 758.36656292 -244.8019352 751.83651652 -255.17724609 745.29296875 C-257.82793784 743.62448628 -260.48498326 741.96681008 -263.14453125 740.3125 C-275.76049276 732.42159902 -288.10292342 724.13355242 -300.4375 715.8125 C-301.70847534 714.95585754 -301.70847534 714.95585754 -303.00512695 714.08190918 C-319.92555649 702.66803617 -336.59960276 690.92509052 -353.09912109 678.91113281 C-354.38150541 677.97832108 -355.66548902 677.04770065 -356.95166016 676.12011719 C-372.45257881 664.93370286 -381.59975713 654.13842891 -384.77450562 634.8062439 C-386.0595772 626.12135304 -386.80662401 617.36329012 -387.625 608.625 C-387.73172028 607.50801727 -387.83844055 606.39103455 -387.94839478 605.24020386 C-389.0595642 593.60190521 -390.11330405 581.9589833 -391.04296875 570.3046875 C-391.10285477 569.55945831 -391.16274078 568.81422913 -391.22444153 568.04641724 C-394.47319022 526.13153722 -395.5047101 484.25492492 -395.44285583 442.22388077 C-395.43741832 438.37975211 -395.43504918 434.53562961 -395.4329834 430.6914978 C-395.40273531 394.5711542 -395.08386825 358.57918825 -392.35931396 322.54711914 C-392.11685846 319.32945225 -391.88496356 316.11114514 -391.65478516 312.89257812 C-390.63234616 298.72599129 -389.44250552 284.57949735 -388.125 270.4375 C-387.99964874 269.07123474 -387.99964874 269.07123474 -387.87176514 267.67736816 C-387.39195811 262.45254362 -386.8938878 257.23009534 -386.36520386 252.00997925 C-386.20864054 250.4554652 -386.05588533 248.90056145 -385.90750122 247.34524536 C-384.28447938 230.53943256 -380.17348574 215.61544942 -366.7421875 204.4453125 C-361.95602038 200.77353653 -357.04600349 197.29407407 -352.10546875 193.83544922 C-349.3472083 191.88848184 -346.61940852 189.90070048 -343.88964844 187.9140625 C-327.5681479 176.04388029 -310.99907181 164.50880694 -294.125 153.4375 C-293.19880859 152.82825684 -292.27261719 152.21901367 -291.31835938 151.59130859 C-238.37906922 116.78248066 -184.0693593 84.55275759 -127.80078125 55.38671875 C-124.10129157 53.46909626 -120.41157092 51.53470902 -116.73046875 49.58203125 C-90.34786406 35.61797696 -63.38231712 23.00210811 -36.03471375 11.05456543 C-32.8275546 9.64880663 -29.63695378 8.21998807 -26.47460938 6.71582031 C-17.50374313 2.45220849 -9.97136782 0.0745368 0 0 Z " fill="#26B859" transform="translate(600.125,163.5625)"/>
<path d="M0 0 C6.2887849 3.90195234 11.51107528 9.30703324 16.6015625 14.62890625 C19.25915319 17.25619868 22.0498677 19.68053898 24.87207031 22.12817383 C28.34972597 25.1872819 31.70198472 28.37592035 35.0625 31.5625 C36.5492778 32.96635913 38.03626126 34.37000047 39.5234375 35.7734375 C40.6386377 36.8267627 40.6386377 36.8267627 41.77636719 37.90136719 C45.24016978 41.17045449 48.71108205 44.43183481 52.1875 47.6875 C52.7863501 48.25090088 53.3852002 48.81430176 54.00219727 49.39477539 C56.70474335 51.9232346 59.42626451 54.37490896 62.30078125 56.70703125 C65.87368295 59.74218798 66.91865035 61.15938699 67.375 65.875 C67.28349961 70.01539255 66.00506123 72.08332292 63 75 C57.02970315 77.98514842 49.6749948 76 43 76 C43 116.26 43 156.52 43 198 C85.9 198 128.8 198 173 198 C172.96519531 188.09613281 172.93039062 178.19226563 172.89453125 167.98828125 C172.87920655 161.72200287 172.86464092 155.45573804 172.85351562 149.18945312 C172.83570701 139.23864103 172.81475882 129.28790508 172.77368164 119.3371582 C172.74378107 112.09043499 172.72442543 104.84377348 172.71773452 97.59699029 C172.71382336 93.7598117 172.70463047 89.92280965 172.68280983 86.08568764 C172.6624342 82.47337192 172.65616832 78.86130533 172.66067696 75.24893761 C172.65945925 73.29251299 172.64332272 71.33611545 172.6267395 69.37976074 C172.63086349 68.21173416 172.63498749 67.04370758 172.63923645 65.84028625 C172.63647107 64.82723577 172.63370569 63.81418528 172.63085651 62.77043629 C173.06740307 59.49413729 174.04825728 57.6492673 176 55 C179.67084708 52.55276862 182.44942228 52.69742488 186.69677734 52.69360352 C187.47922318 52.68528 188.26166901 52.67695648 189.06782532 52.66838074 C191.6572465 52.64426391 194.24641588 52.63550665 196.8359375 52.62890625 C198.63571245 52.61994119 200.43548662 52.61081937 202.23526001 52.60154724 C206.00972302 52.58505013 209.78409726 52.57735582 213.55859375 52.57446289 C218.39325751 52.56907829 223.22708604 52.53139852 228.0615139 52.48571873 C231.77960246 52.45596396 235.49748952 52.44873968 239.2156868 52.44773674 C240.9978887 52.44353128 242.78009103 52.43108385 244.56217575 52.41021919 C247.05688485 52.3833365 249.54965321 52.38811971 252.04443359 52.40063477 C252.7791539 52.38580048 253.51387421 52.37096619 254.27085876 52.35568237 C258.26124023 52.41263537 259.83812986 52.86348893 262.9347229 55.47496033 C263.61626434 56.30822342 264.29780579 57.14148651 265 58 C265.33 58.33 265.66 58.66 266 59 C266.09763161 60.88699268 266.12371339 62.77769783 266.12304783 64.66721439 C266.12503888 65.90581087 266.12702993 67.14440735 266.12908131 68.42053705 C266.12622772 69.81283401 266.12328211 71.20513078 266.12025452 72.59742737 C266.12069009 74.06259474 266.12156474 75.52776204 266.12284368 76.99292892 C266.12509139 81.03823813 266.12106362 85.08352111 266.11606562 89.12882698 C266.11176523 93.48399665 266.11320725 97.83916474 266.1139679 102.19433594 C266.11449339 109.74632177 266.11134391 117.298299 266.10573006 124.85028267 C266.09761853 135.76931407 266.09500019 146.68834129 266.09374207 157.60737538 C266.091551 175.32085352 266.08488943 193.03432708 266.07543945 210.74780273 C266.06626675 227.95939104 266.05918522 245.1709781 266.05493164 262.38256836 C266.05453756 263.97274942 266.05453756 263.97274942 266.05413551 265.59505535 C266.05283051 270.91313 266.0515668 276.23120466 266.05032361 281.54927933 C266.03994929 325.69952274 266.02232949 369.84976113 266 414 C267.24136719 413.95359375 268.48273438 413.9071875 269.76171875 413.859375 C271.40362171 413.82184579 273.04555077 413.78544686 274.6875 413.75 C275.50412109 413.71648437 276.32074219 413.68296875 277.16210938 413.6484375 C281.30292007 413.58137984 283.4274885 413.64153226 287.01953125 415.890625 C290.08632233 419.15702971 290.35834353 421.49531816 290.26953125 425.984375 C289.6381627 430.70591375 285.74847775 433.24343342 282.35546875 436.171875 C278.07266877 439.90633282 273.93397322 443.77672136 269.8125 447.6875 C264.20488895 452.98761067 258.57789379 458.26304902 252.89282227 463.47998047 C249.89125833 466.23908344 246.91440441 469.02164532 243.95703125 471.828125 C225.52848019 489.31041449 225.52848019 489.31041449 219.5625 490.9375 C211.17765623 488.73096217 205.04293041 481.20229477 199.15625 475.16015625 C196.52028097 472.51941192 193.72898648 470.10747062 190.8984375 467.6796875 C188.44242656 465.50667371 186.1677536 463.18057191 183.87207031 460.84082031 C182.07745954 459.07616653 180.22956255 457.42816821 178.3203125 455.7890625 C173.12707133 451.27455142 168.162718 446.52878849 163.1796875 441.78515625 C160.03948887 438.80993182 156.9065494 435.87107357 153.5625 433.125 C149.81858322 430.02028852 149.14923268 428.36796622 148.625 423.5625 C149.06121638 419.41844436 150.09130272 417.90869728 153 415 C158.97029685 412.01485158 166.3250052 414 173 414 C173 373.41 173 332.82 173 291 C130.1 291 87.2 291 43 291 C43.03480469 300.89226562 43.06960938 310.78453125 43.10546875 320.9765625 C43.1207948 327.23828359 43.13536059 333.49999112 43.14648438 339.76171875 C43.16428773 349.70366048 43.18522125 359.64552596 43.22631836 369.58740234 C43.25623443 376.82790922 43.27557826 384.06835425 43.28226548 391.30892122 C43.28617402 395.14221946 43.2953502 398.9753408 43.31719017 402.80858231 C43.33759029 406.41843884 43.34382674 410.028046 43.33932304 413.63795471 C43.34053865 415.59060856 43.35666235 417.54323541 43.3732605 419.49581909 C43.33416423 430.58197415 43.33416423 430.58197415 40 435 C36.58744418 437.71358426 32.4584318 437.30257145 28.28149414 437.30639648 C27.50865585 437.31472 26.73581757 437.32304352 25.93955994 437.33161926 C23.38804063 437.3556899 20.83677701 437.36448697 18.28515625 437.37109375 C16.50923079 437.38006114 14.73330611 437.389183 12.9573822 437.39845276 C9.23597376 437.41493647 5.51465523 437.42264195 1.79321289 437.42553711 C-2.97304547 437.43092547 -7.73845815 437.4686264 -12.5044775 437.51428127 C-16.17195214 437.54403429 -19.83922249 437.55126025 -23.50680733 437.55226326 C-25.26389 437.55646777 -27.02097317 437.56891142 -28.77793694 437.58978081 C-31.23662335 437.6166648 -33.69334085 437.61188048 -36.15209961 437.59936523 C-37.23779739 437.62161667 -37.23779739 437.62161667 -38.34542847 437.64431763 C-42.22224889 437.5881763 -43.86623574 437.10735703 -46.92799377 434.65003967 C-49.98585277 430.73912109 -50.12475752 427.9409578 -50.12304783 423.11792469 C-50.12503888 421.88231291 -50.12702993 420.64670112 -50.12908131 419.37364656 C-50.12622808 417.99509463 -50.12328248 416.61654289 -50.12025452 415.23799133 C-50.12069035 413.77934745 -50.12156547 412.32070364 -50.12284368 410.86206025 C-50.12508634 406.84407279 -50.12107046 402.82611184 -50.11606562 398.80812776 C-50.11175805 394.47889669 -50.11320776 390.14966718 -50.1139679 385.82043457 C-50.11449293 378.31650245 -50.11134822 370.812579 -50.10573006 363.30864906 C-50.09761236 352.45914784 -50.09499956 341.60965081 -50.09374207 330.76014688 C-50.09155197 313.15869905 -50.08489304 295.55725586 -50.07543945 277.95581055 C-50.06626424 260.85489932 -50.05918394 243.75398936 -50.05493164 226.65307617 C-50.05453756 225.07264427 -50.05453756 225.07264427 -50.05413551 223.46028445 C-50.0528305 218.17471921 -50.05156678 212.88915396 -50.05032361 207.6035887 C-50.03995232 163.73572259 -50.02233516 119.86786154 -50 76 C-51.24136719 76.04640625 -52.48273438 76.0928125 -53.76171875 76.140625 C-55.40362171 76.17815421 -57.04555077 76.21455314 -58.6875 76.25 C-59.50412109 76.28351563 -60.32074219 76.31703125 -61.16210938 76.3515625 C-65.30292007 76.41862016 -67.4274885 76.35846774 -71.01953125 74.109375 C-74.08632233 70.84297029 -74.35834353 68.50468184 -74.26953125 64.015625 C-73.63778128 59.29123394 -69.74234066 56.75101829 -66.34765625 53.8203125 C-62.11217007 50.12686485 -58.01479485 46.30393334 -53.9375 42.4375 C-52.44164222 41.02448973 -50.94554383 39.61173415 -49.44921875 38.19921875 C-48.33232666 37.14420166 -48.33232666 37.14420166 -47.19287109 36.06787109 C-41.48594634 30.68625757 -35.74481122 25.34111326 -30 20 C-29.11755615 19.17943115 -29.11755615 19.17943115 -28.21728516 18.34228516 C-6.67103453 -1.67391272 -6.67103453 -1.67391272 0 0 Z " fill="#FDFEFE" transform="translate(492,355)"/>
</svg>
